<svg height="1854" width="720" xmlns="http://www.w3.org/2000/svg">
<rect height="1854" fill="#555" width="720"></rect>
<text fill="#7f7" font-family="Courier New" font-size="12" xml:space="preserve">
<tspan x="10" y="26">26 megabytes installed</tspan>
<tspan x="10" y="42"></tspan>
<tspan x="10" y="58">node_modules</tspan>
<tspan x="10" y="74">└─┬ frontnote@2.0.5 </tspan>
<tspan x="10" y="90">  ├─┬ chalk@1.1.3 </tspan>
<tspan x="10" y="106">  │ ├── ansi-styles@2.2.1 </tspan>
<tspan x="10" y="122">  │ ├── escape-string-regexp@1.0.5 </tspan>
<tspan x="10" y="138">  │ ├─┬ has-ansi@2.0.0 </tspan>
<tspan x="10" y="154">  │ │ └── ansi-regex@2.1.1 </tspan>
<tspan x="10" y="170">  │ ├── strip-ansi@3.0.1 </tspan>
<tspan x="10" y="186">  │ └── supports-color@2.0.0 </tspan>
<tspan x="10" y="202">  ├─┬ commander@2.9.0 </tspan>
<tspan x="10" y="218">  │ └── graceful-readlink@1.0.1 </tspan>
<tspan x="10" y="234">  ├─┬ cpx@1.5.0 </tspan>
<tspan x="10" y="250">  │ ├─┬ babel-runtime@6.23.0 </tspan>
<tspan x="10" y="266">  │ │ ├── core-js@2.4.1 </tspan>
<tspan x="10" y="282">  │ │ └── regenerator-runtime@0.10.3 </tspan>
<tspan x="10" y="298">  │ ├─┬ chokidar@1.6.1 </tspan>
<tspan x="10" y="314">  │ │ ├─┬ anymatch@1.3.0 </tspan>
<tspan x="10" y="330">  │ │ │ ├── arrify@1.0.1 </tspan>
<tspan x="10" y="346">  │ │ │ └─┬ micromatch@2.3.11 </tspan>
<tspan x="10" y="362">  │ │ │   ├─┬ arr-diff@2.0.0 </tspan>
<tspan x="10" y="378">  │ │ │   │ └── arr-flatten@1.0.3 </tspan>
<tspan x="10" y="394">  │ │ │   ├── array-unique@0.2.1 </tspan>
<tspan x="10" y="410">  │ │ │   ├─┬ braces@1.8.5 </tspan>
<tspan x="10" y="426">  │ │ │   │ ├─┬ expand-range@1.8.2 </tspan>
<tspan x="10" y="442">  │ │ │   │ │ └─┬ fill-range@2.2.3 </tspan>
<tspan x="10" y="458">  │ │ │   │ │   ├── is-number@2.1.0 </tspan>
<tspan x="10" y="474">  │ │ │   │ │   ├── isobject@2.1.0 </tspan>
<tspan x="10" y="490">  │ │ │   │ │   ├── randomatic@1.1.6 </tspan>
<tspan x="10" y="506">  │ │ │   │ │   └── repeat-string@1.6.1 </tspan>
<tspan x="10" y="522">  │ │ │   │ ├── preserve@0.2.0 </tspan>
<tspan x="10" y="538">  │ │ │   │ └── repeat-element@1.1.2 </tspan>
<tspan x="10" y="554">  │ │ │   ├─┬ expand-brackets@0.1.5 </tspan>
<tspan x="10" y="570">  │ │ │   │ └── is-posix-bracket@0.1.1 </tspan>
<tspan x="10" y="586">  │ │ │   ├── extglob@0.3.2 </tspan>
<tspan x="10" y="602">  │ │ │   ├── filename-regex@2.0.0 </tspan>
<tspan x="10" y="618">  │ │ │   ├─┬ kind-of@3.1.0 </tspan>
<tspan x="10" y="634">  │ │ │   │ └── is-buffer@1.1.5 </tspan>
<tspan x="10" y="650">  │ │ │   ├─┬ normalize-path@2.1.1 </tspan>
<tspan x="10" y="666">  │ │ │   │ └── remove-trailing-separator@1.0.1 </tspan>
<tspan x="10" y="682">  │ │ │   ├─┬ object.omit@2.0.1 </tspan>
<tspan x="10" y="698">  │ │ │   │ ├─┬ for-own@0.1.5 </tspan>
<tspan x="10" y="714">  │ │ │   │ │ └── for-in@1.0.2 </tspan>
<tspan x="10" y="730">  │ │ │   │ └── is-extendable@0.1.1 </tspan>
<tspan x="10" y="746">  │ │ │   ├─┬ parse-glob@3.0.4 </tspan>
<tspan x="10" y="762">  │ │ │   │ ├── glob-base@0.3.0 </tspan>
<tspan x="10" y="778">  │ │ │   │ └── is-dotfile@1.0.2 </tspan>
<tspan x="10" y="794">  │ │ │   └─┬ regex-cache@0.4.3 </tspan>
<tspan x="10" y="810">  │ │ │     ├── is-equal-shallow@0.1.3 </tspan>
<tspan x="10" y="826">  │ │ │     └── is-primitive@2.0.0 </tspan>
<tspan x="10" y="842">  │ │ ├── async-each@1.0.1 </tspan>
<tspan x="10" y="858">  │ │ ├── glob-parent@2.0.0 </tspan>
<tspan x="10" y="874">  │ │ ├─┬ is-binary-path@1.0.1 </tspan>
<tspan x="10" y="890">  │ │ │ └── binary-extensions@1.8.0 </tspan>
<tspan x="10" y="906">  │ │ ├─┬ is-glob@2.0.1 </tspan>
<tspan x="10" y="922">  │ │ │ └── is-extglob@1.0.0 </tspan>
<tspan x="10" y="938">  │ │ └─┬ readdirp@2.1.0 </tspan>
<tspan x="10" y="954">  │ │   ├─┬ readable-stream@2.2.9 </tspan>
<tspan x="10" y="970">  │ │   │ ├── buffer-shims@1.0.0 </tspan>
<tspan x="10" y="986">  │ │   │ ├── core-util-is@1.0.2 </tspan>
<tspan x="10" y="1002">  │ │   │ ├── isarray@1.0.0 </tspan>
<tspan x="10" y="1018">  │ │   │ ├── process-nextick-args@1.0.7 </tspan>
<tspan x="10" y="1034">  │ │   │ ├── string_decoder@1.0.0 </tspan>
<tspan x="10" y="1050">  │ │   │ └── util-deprecate@1.0.2 </tspan>
<tspan x="10" y="1066">  │ │   └── set-immediate-shim@1.0.1 </tspan>
<tspan x="10" y="1082">  │ ├── duplexer@0.1.1 </tspan>
<tspan x="10" y="1098">  │ ├─┬ glob2base@0.0.12 </tspan>
<tspan x="10" y="1114">  │ │ └── find-index@0.1.1 </tspan>
<tspan x="10" y="1130">  │ ├─┬ minimatch@3.0.3 </tspan>
<tspan x="10" y="1146">  │ │ └─┬ brace-expansion@1.1.7 </tspan>
<tspan x="10" y="1162">  │ │   ├── balanced-match@0.4.2 </tspan>
<tspan x="10" y="1178">  │ │   └── concat-map@0.0.1 </tspan>
<tspan x="10" y="1194">  │ ├─┬ mkdirp@0.5.1 </tspan>
<tspan x="10" y="1210">  │ │ └── minimist@0.0.8 </tspan>
<tspan x="10" y="1226">  │ ├─┬ resolve@1.3.3 </tspan>
<tspan x="10" y="1242">  │ │ └── path-parse@1.0.5 </tspan>
<tspan x="10" y="1258">  │ ├── safe-buffer@5.0.1 </tspan>
<tspan x="10" y="1274">  │ ├─┬ shell-quote@1.6.1 </tspan>
<tspan x="10" y="1290">  │ │ ├── array-filter@0.0.1 </tspan>
<tspan x="10" y="1306">  │ │ ├── array-map@0.0.0 </tspan>
<tspan x="10" y="1322">  │ │ ├── array-reduce@0.0.0 </tspan>
<tspan x="10" y="1338">  │ │ └── jsonify@0.0.0 </tspan>
<tspan x="10" y="1354">  │ └─┬ subarg@1.0.0 </tspan>
<tspan x="10" y="1370">  │   └── minimist@1.2.0 </tspan>
<tspan x="10" y="1386">  ├── ejs@2.5.6 </tspan>
<tspan x="10" y="1402">  ├── extend@3.0.0 </tspan>
<tspan x="10" y="1418">  ├─┬ fs-extra@0.30.0 </tspan>
<tspan x="10" y="1434">  │ ├── graceful-fs@4.1.11 </tspan>
<tspan x="10" y="1450">  │ ├── jsonfile@2.4.0 </tspan>
<tspan x="10" y="1466">  │ ├── klaw@1.3.1 </tspan>
<tspan x="10" y="1482">  │ ├── path-is-absolute@1.0.1 </tspan>
<tspan x="10" y="1498">  │ └── rimraf@2.6.1 </tspan>
<tspan x="10" y="1514">  ├─┬ gaze@1.1.2 </tspan>
<tspan x="10" y="1530">  │ └─┬ globule@1.1.0 </tspan>
<tspan x="10" y="1546">  │   └── lodash@4.16.6 </tspan>
<tspan x="10" y="1562">  ├─┬ glob@7.1.1 </tspan>
<tspan x="10" y="1578">  │ ├── fs.realpath@1.0.0 </tspan>
<tspan x="10" y="1594">  │ ├─┬ inflight@1.0.6 </tspan>
<tspan x="10" y="1610">  │ │ └── wrappy@1.0.2 </tspan>
<tspan x="10" y="1626">  │ ├── inherits@2.0.3 </tspan>
<tspan x="10" y="1642">  │ └── once@1.4.0 </tspan>
<tspan x="10" y="1658">  ├── marked@0.3.6 </tspan>
<tspan x="10" y="1674">  ├── memory-cache@0.1.6 </tspan>
<tspan x="10" y="1690">  ├─┬ ora@0.3.0 </tspan>
<tspan x="10" y="1706">  │ ├─┬ cli-cursor@1.0.2 </tspan>
<tspan x="10" y="1722">  │ │ └─┬ restore-cursor@1.0.1 </tspan>
<tspan x="10" y="1738">  │ │   ├── exit-hook@1.1.1 </tspan>
<tspan x="10" y="1754">  │ │   └── onetime@1.1.0 </tspan>
<tspan x="10" y="1770">  │ ├── cli-spinners@0.2.0 </tspan>
<tspan x="10" y="1786">  │ └── log-symbols@1.0.2 </tspan>
<tspan x="10" y="1802">  ├─┬ rxjs@5.3.0 </tspan>
<tspan x="10" y="1818">  │ └── symbol-observable@1.0.4 </tspan>
<tspan x="10" y="1834">  └── sanitizer@0.1.3</tspan>
</text>
</svg>
